# xmcd
#
# Track frame offsets:
#	150
#	10111
#	22754
#	35960
#	47696
#	60256
#	71433
#	83895
#	96836
#	107974
#	118856
#	129726
#	142115
#	155107
#	165108
#	179149
#	192697
#	204984
#	218286
#
# Disc length: 3047 seconds
#
# Revision: 1
# Processed by: cddbd v1.5.2PL0 Copyright (c) Steve Scherf et al.
# Submitted via: audiograbber 1.83.01
#
DISCID=0d0be513
DTITLE=Israel Novaes - O Cara Do Arrocha
DYEAR=2012
DGENRE=Sertanejo
TTITLE0=Israel Novaes - Vem Ni Mim Dodge RAM
TTITLE1=Israel Novaes - Humberto and Ronaldo - Beijo Meu
TTITLE2=Israel Novaes - Depende
TTITLE3=Israel Novaes - Cancao Perfeita
TTITLE4=Israel Novaes - Viagem Da Paixao
TTITLE5=Israel Novaes - Cheiro No Pescoco
TTITLE6=Israel Novaes - Morena Poema
TTITLE7=Israel Novaes - Carro Pancadao
TTITLE8=Israel Novaes - Fogo De Palha
TTITLE9=Israel Novaes - Minhas Emocoes
TTITLE10=Israel Novaes - Seu Colchao
TTITLE11=Israel Novaes - Deixo Raiz
TTITLE12=Israel Novaes - Se Ter Voce Aqui
TTITLE13=Israel Novaes - Gusttavo Lima - Vem Ni Mem Dodge RAM
TTITLE14=Israel Novaes - Ze Ricardo and Thiago - Sinal Disfarcado
TTITLE15=Israel Novaes - Versao Acustica - Beijo Meu
TTITLE16=Israel Novaes - Versao Acustica - Depende
TTITLE17=Israel Novaes - Versao Acustica - Viagem Da Paixao
TTITLE18=Israel Novaes - Versao Acustica - Vem Ni Mim Dodge RAM
EXTD=Upado Por Mr.Mendes
EXTT0=
EXTT1=
EXTT2=
EXTT3=
EXTT4=
EXTT5=
EXTT6=
EXTT7=
EXTT8=
EXTT9=
EXTT10=
EXTT11=
EXTT12=
EXTT13=
EXTT14=
EXTT15=
EXTT16=
EXTT17=
EXTT18=
PLAYORDER=
